<mxfile host="Electron" modified="2024-05-18T17:30:16.617Z" agent="Mozilla/5.0 (X11; Linux x86_64) AppleWebKit/537.36 (KHTML, like Gecko) draw.io/24.2.5 Chrome/120.0.6099.109 Electron/28.1.0 Safari/537.36" etag="fp0swcCQPvuqgIAPOx3f" version="24.2.5" type="device">
  <diagram name="PÃ¡gina-1" id="m3OHUJk2A6lblHHqhCZ5">
    <mxGraphModel dx="1674" dy="839" grid="1" gridSize="10" guides="1" tooltips="1" connect="1" arrows="1" fold="1" page="1" pageScale="1" pageWidth="827" pageHeight="1169" math="0" shadow="0">
      <root>
        <mxCell id="0" />
        <mxCell id="1" parent="0" />
        <mxCell id="R3QwsEBxaPi7MsHxChWB-3" value="header1" style="rounded=1;whiteSpace=wrap;html=1;absoluteArcSize=1;arcSize=14;strokeWidth=2;" parent="1" vertex="1">
          <mxGeometry x="320" y="180" width="110" height="50" as="geometry" />
        </mxCell>
        <mxCell id="kBIa_GiGaw9N0HxE61ZL-1" value="read_full = 0" style="shape=parallelogram;html=1;strokeWidth=2;perimeter=parallelogramPerimeter;whiteSpace=wrap;rounded=1;arcSize=12;size=0.23;" parent="1" vertex="1">
          <mxGeometry x="325" y="230" width="100" height="60" as="geometry" />
        </mxCell>
        <mxCell id="kBIa_GiGaw9N0HxE61ZL-5" style="edgeStyle=orthogonalEdgeStyle;rounded=0;orthogonalLoop=1;jettySize=auto;html=1;exitX=0.5;exitY=1;exitDx=0;exitDy=0;exitPerimeter=0;" parent="1" source="kBIa_GiGaw9N0HxE61ZL-2" target="kBIa_GiGaw9N0HxE61ZL-4" edge="1">
          <mxGeometry relative="1" as="geometry" />
        </mxCell>
        <mxCell id="kBIa_GiGaw9N0HxE61ZL-6" value="Yes" style="edgeLabel;html=1;align=center;verticalAlign=middle;resizable=0;points=[];" parent="kBIa_GiGaw9N0HxE61ZL-5" vertex="1" connectable="0">
          <mxGeometry x="0.2245" y="5" relative="1" as="geometry">
            <mxPoint x="6" as="offset" />
          </mxGeometry>
        </mxCell>
        <mxCell id="kBIa_GiGaw9N0HxE61ZL-10" style="edgeStyle=orthogonalEdgeStyle;rounded=0;orthogonalLoop=1;jettySize=auto;html=1;exitX=0;exitY=0.5;exitDx=0;exitDy=0;exitPerimeter=0;entryX=0;entryY=0.25;entryDx=0;entryDy=0;" parent="1" source="kBIa_GiGaw9N0HxE61ZL-2" target="R3QwsEBxaPi7MsHxChWB-3" edge="1">
          <mxGeometry relative="1" as="geometry" />
        </mxCell>
        <mxCell id="kBIa_GiGaw9N0HxE61ZL-11" value="No" style="edgeLabel;html=1;align=center;verticalAlign=middle;resizable=0;points=[];" parent="kBIa_GiGaw9N0HxE61ZL-10" vertex="1" connectable="0">
          <mxGeometry x="-0.7176" y="1" relative="1" as="geometry">
            <mxPoint x="-15" y="-9" as="offset" />
          </mxGeometry>
        </mxCell>
        <mxCell id="kBIa_GiGaw9N0HxE61ZL-2" value="rx_dv = &#39;1&#39; ?" style="strokeWidth=2;html=1;shape=mxgraph.flowchart.decision;whiteSpace=wrap;" parent="1" vertex="1">
          <mxGeometry x="305" y="320" width="140" height="60" as="geometry" />
        </mxCell>
        <mxCell id="kBIa_GiGaw9N0HxE61ZL-3" style="edgeStyle=orthogonalEdgeStyle;rounded=0;orthogonalLoop=1;jettySize=auto;html=1;exitX=0.5;exitY=1;exitDx=0;exitDy=0;entryX=0.5;entryY=0;entryDx=0;entryDy=0;entryPerimeter=0;" parent="1" source="kBIa_GiGaw9N0HxE61ZL-1" target="kBIa_GiGaw9N0HxE61ZL-2" edge="1">
          <mxGeometry relative="1" as="geometry" />
        </mxCell>
        <mxCell id="kBIa_GiGaw9N0HxE61ZL-4" value="index = 0" style="shape=parallelogram;html=1;strokeWidth=2;perimeter=parallelogramPerimeter;whiteSpace=wrap;rounded=1;arcSize=12;size=0.23;" parent="1" vertex="1">
          <mxGeometry x="325" y="411" width="100" height="60" as="geometry" />
        </mxCell>
        <mxCell id="kBIa_GiGaw9N0HxE61ZL-16" style="edgeStyle=orthogonalEdgeStyle;rounded=0;orthogonalLoop=1;jettySize=auto;html=1;exitX=0.5;exitY=1;exitDx=0;exitDy=0;exitPerimeter=0;" parent="1" source="kBIa_GiGaw9N0HxE61ZL-12" target="kBIa_GiGaw9N0HxE61ZL-14" edge="1">
          <mxGeometry relative="1" as="geometry" />
        </mxCell>
        <mxCell id="kBIa_GiGaw9N0HxE61ZL-12" value="rx_byte = &quot;FF&quot; ?" style="strokeWidth=2;html=1;shape=mxgraph.flowchart.decision;whiteSpace=wrap;" parent="1" vertex="1">
          <mxGeometry x="307" y="507" width="140" height="60" as="geometry" />
        </mxCell>
        <mxCell id="kBIa_GiGaw9N0HxE61ZL-13" style="edgeStyle=orthogonalEdgeStyle;rounded=0;orthogonalLoop=1;jettySize=auto;html=1;exitX=0.5;exitY=1;exitDx=0;exitDy=0;entryX=0.5;entryY=0;entryDx=0;entryDy=0;entryPerimeter=0;" parent="1" source="kBIa_GiGaw9N0HxE61ZL-4" target="kBIa_GiGaw9N0HxE61ZL-12" edge="1">
          <mxGeometry relative="1" as="geometry" />
        </mxCell>
        <mxCell id="kBIa_GiGaw9N0HxE61ZL-19" style="edgeStyle=orthogonalEdgeStyle;rounded=0;orthogonalLoop=1;jettySize=auto;html=1;exitX=0.5;exitY=1;exitDx=0;exitDy=0;" parent="1" source="kBIa_GiGaw9N0HxE61ZL-14" target="kBIa_GiGaw9N0HxE61ZL-18" edge="1">
          <mxGeometry relative="1" as="geometry" />
        </mxCell>
        <mxCell id="kBIa_GiGaw9N0HxE61ZL-14" value="command(0) = rx_byte" style="shape=parallelogram;html=1;strokeWidth=2;perimeter=parallelogramPerimeter;whiteSpace=wrap;rounded=1;arcSize=12;size=0.23;" parent="1" vertex="1">
          <mxGeometry x="296" y="600" width="163" height="60" as="geometry" />
        </mxCell>
        <mxCell id="kBIa_GiGaw9N0HxE61ZL-18" value="header2" style="rounded=1;whiteSpace=wrap;html=1;absoluteArcSize=1;arcSize=14;strokeWidth=2;" parent="1" vertex="1">
          <mxGeometry x="323" y="693" width="110" height="50" as="geometry" />
        </mxCell>
        <mxCell id="kBIa_GiGaw9N0HxE61ZL-23" style="edgeStyle=orthogonalEdgeStyle;rounded=0;orthogonalLoop=1;jettySize=auto;html=1;exitX=0;exitY=0.5;exitDx=0;exitDy=0;exitPerimeter=0;entryX=0;entryY=0.25;entryDx=0;entryDy=0;" parent="1" source="kBIa_GiGaw9N0HxE61ZL-20" target="kBIa_GiGaw9N0HxE61ZL-18" edge="1">
          <mxGeometry relative="1" as="geometry" />
        </mxCell>
        <mxCell id="kBIa_GiGaw9N0HxE61ZL-24" value="No" style="edgeLabel;html=1;align=center;verticalAlign=middle;resizable=0;points=[];" parent="kBIa_GiGaw9N0HxE61ZL-23" vertex="1" connectable="0">
          <mxGeometry x="-0.2681" y="-4" relative="1" as="geometry">
            <mxPoint x="-17" as="offset" />
          </mxGeometry>
        </mxCell>
        <mxCell id="kBIa_GiGaw9N0HxE61ZL-26" style="edgeStyle=orthogonalEdgeStyle;rounded=0;orthogonalLoop=1;jettySize=auto;html=1;exitX=0.5;exitY=1;exitDx=0;exitDy=0;exitPerimeter=0;" parent="1" source="kBIa_GiGaw9N0HxE61ZL-20" target="kBIa_GiGaw9N0HxE61ZL-25" edge="1">
          <mxGeometry relative="1" as="geometry" />
        </mxCell>
        <mxCell id="kBIa_GiGaw9N0HxE61ZL-29" value="Yes" style="edgeLabel;html=1;align=center;verticalAlign=middle;resizable=0;points=[];" parent="kBIa_GiGaw9N0HxE61ZL-26" vertex="1" connectable="0">
          <mxGeometry x="-0.05" y="1" relative="1" as="geometry">
            <mxPoint x="8" as="offset" />
          </mxGeometry>
        </mxCell>
        <mxCell id="kBIa_GiGaw9N0HxE61ZL-20" value="rx_dv = &#39;1&#39; ?" style="strokeWidth=2;html=1;shape=mxgraph.flowchart.decision;whiteSpace=wrap;" parent="1" vertex="1">
          <mxGeometry x="306" y="777" width="140" height="60" as="geometry" />
        </mxCell>
        <mxCell id="kBIa_GiGaw9N0HxE61ZL-21" style="edgeStyle=orthogonalEdgeStyle;rounded=0;orthogonalLoop=1;jettySize=auto;html=1;exitX=0.5;exitY=1;exitDx=0;exitDy=0;entryX=0.5;entryY=0;entryDx=0;entryDy=0;entryPerimeter=0;" parent="1" source="kBIa_GiGaw9N0HxE61ZL-18" target="kBIa_GiGaw9N0HxE61ZL-20" edge="1">
          <mxGeometry relative="1" as="geometry" />
        </mxCell>
        <mxCell id="kBIa_GiGaw9N0HxE61ZL-27" style="edgeStyle=orthogonalEdgeStyle;rounded=0;orthogonalLoop=1;jettySize=auto;html=1;exitX=1;exitY=0.5;exitDx=0;exitDy=0;exitPerimeter=0;entryX=1;entryY=0.25;entryDx=0;entryDy=0;" parent="1" source="kBIa_GiGaw9N0HxE61ZL-25" target="R3QwsEBxaPi7MsHxChWB-3" edge="1">
          <mxGeometry relative="1" as="geometry" />
        </mxCell>
        <mxCell id="kBIa_GiGaw9N0HxE61ZL-28" value="No" style="edgeLabel;html=1;align=center;verticalAlign=middle;resizable=0;points=[];" parent="kBIa_GiGaw9N0HxE61ZL-27" vertex="1" connectable="0">
          <mxGeometry x="-0.5435" y="-2" relative="1" as="geometry">
            <mxPoint x="13" as="offset" />
          </mxGeometry>
        </mxCell>
        <mxCell id="kBIa_GiGaw9N0HxE61ZL-31" style="edgeStyle=orthogonalEdgeStyle;rounded=0;orthogonalLoop=1;jettySize=auto;html=1;exitX=0.5;exitY=1;exitDx=0;exitDy=0;exitPerimeter=0;" parent="1" source="kBIa_GiGaw9N0HxE61ZL-25" target="kBIa_GiGaw9N0HxE61ZL-30" edge="1">
          <mxGeometry relative="1" as="geometry" />
        </mxCell>
        <mxCell id="kBIa_GiGaw9N0HxE61ZL-32" value="Yes" style="edgeLabel;html=1;align=center;verticalAlign=middle;resizable=0;points=[];" parent="kBIa_GiGaw9N0HxE61ZL-31" vertex="1" connectable="0">
          <mxGeometry x="0.3878" y="1" relative="1" as="geometry">
            <mxPoint x="10" y="-2" as="offset" />
          </mxGeometry>
        </mxCell>
        <mxCell id="kBIa_GiGaw9N0HxE61ZL-25" value="rx_byte = &quot;FF&quot; ?" style="strokeWidth=2;html=1;shape=mxgraph.flowchart.decision;whiteSpace=wrap;" parent="1" vertex="1">
          <mxGeometry x="306" y="877" width="140" height="60" as="geometry" />
        </mxCell>
        <mxCell id="kBIa_GiGaw9N0HxE61ZL-34" style="edgeStyle=orthogonalEdgeStyle;rounded=0;orthogonalLoop=1;jettySize=auto;html=1;exitX=0.5;exitY=1;exitDx=0;exitDy=0;entryX=0.5;entryY=0;entryDx=0;entryDy=0;" parent="1" source="kBIa_GiGaw9N0HxE61ZL-30" target="kBIa_GiGaw9N0HxE61ZL-33" edge="1">
          <mxGeometry relative="1" as="geometry" />
        </mxCell>
        <mxCell id="kBIa_GiGaw9N0HxE61ZL-30" value="command(1) = rx_byte" style="shape=parallelogram;html=1;strokeWidth=2;perimeter=parallelogramPerimeter;whiteSpace=wrap;rounded=1;arcSize=12;size=0.23;" parent="1" vertex="1">
          <mxGeometry x="285" y="968" width="182" height="60" as="geometry" />
        </mxCell>
        <mxCell id="kBIa_GiGaw9N0HxE61ZL-33" value="address" style="rounded=1;whiteSpace=wrap;html=1;absoluteArcSize=1;arcSize=14;strokeWidth=2;" parent="1" vertex="1">
          <mxGeometry x="324" y="1069" width="105" height="61" as="geometry" />
        </mxCell>
        <mxCell id="kBIa_GiGaw9N0HxE61ZL-50" style="edgeStyle=orthogonalEdgeStyle;rounded=0;orthogonalLoop=1;jettySize=auto;html=1;exitX=0;exitY=0.5;exitDx=0;exitDy=0;exitPerimeter=0;entryX=0;entryY=0.25;entryDx=0;entryDy=0;" parent="1" source="kBIa_GiGaw9N0HxE61ZL-38" target="kBIa_GiGaw9N0HxE61ZL-33" edge="1">
          <mxGeometry relative="1" as="geometry" />
        </mxCell>
        <mxCell id="kBIa_GiGaw9N0HxE61ZL-51" value="No" style="edgeLabel;html=1;align=center;verticalAlign=middle;resizable=0;points=[];" parent="kBIa_GiGaw9N0HxE61ZL-50" vertex="1" connectable="0">
          <mxGeometry x="-0.4257" y="1" relative="1" as="geometry">
            <mxPoint x="-11" y="-3" as="offset" />
          </mxGeometry>
        </mxCell>
        <mxCell id="kBIa_GiGaw9N0HxE61ZL-38" value="rx_dv = &#39;1&#39; ?" style="strokeWidth=2;html=1;shape=mxgraph.flowchart.decision;whiteSpace=wrap;" parent="1" vertex="1">
          <mxGeometry x="307" y="1154" width="140" height="60" as="geometry" />
        </mxCell>
        <mxCell id="kBIa_GiGaw9N0HxE61ZL-42" style="edgeStyle=orthogonalEdgeStyle;rounded=0;orthogonalLoop=1;jettySize=auto;html=1;exitX=1;exitY=0.5;exitDx=0;exitDy=0;exitPerimeter=0;entryX=1;entryY=0.25;entryDx=0;entryDy=0;" parent="1" source="kBIa_GiGaw9N0HxE61ZL-39" target="R3QwsEBxaPi7MsHxChWB-3" edge="1">
          <mxGeometry relative="1" as="geometry">
            <Array as="points">
              <mxPoint x="540" y="1277" />
              <mxPoint x="540" y="193" />
            </Array>
          </mxGeometry>
        </mxCell>
        <mxCell id="kBIa_GiGaw9N0HxE61ZL-43" value="Yes" style="edgeLabel;html=1;align=center;verticalAlign=middle;resizable=0;points=[];" parent="kBIa_GiGaw9N0HxE61ZL-42" vertex="1" connectable="0">
          <mxGeometry x="-0.5899" y="-5" relative="1" as="geometry">
            <mxPoint x="8" y="126" as="offset" />
          </mxGeometry>
        </mxCell>
        <mxCell id="kBIa_GiGaw9N0HxE61ZL-45" style="edgeStyle=orthogonalEdgeStyle;rounded=0;orthogonalLoop=1;jettySize=auto;html=1;exitX=0.5;exitY=1;exitDx=0;exitDy=0;exitPerimeter=0;entryX=0.5;entryY=0;entryDx=0;entryDy=0;" parent="1" source="kBIa_GiGaw9N0HxE61ZL-39" target="kBIa_GiGaw9N0HxE61ZL-44" edge="1">
          <mxGeometry relative="1" as="geometry" />
        </mxCell>
        <mxCell id="kBIa_GiGaw9N0HxE61ZL-46" value="No" style="edgeLabel;html=1;align=center;verticalAlign=middle;resizable=0;points=[];" parent="kBIa_GiGaw9N0HxE61ZL-45" vertex="1" connectable="0">
          <mxGeometry x="-0.1163" y="2" relative="1" as="geometry">
            <mxPoint x="7" as="offset" />
          </mxGeometry>
        </mxCell>
        <mxCell id="kBIa_GiGaw9N0HxE61ZL-39" value="rx_byte = &quot;FF&quot; ?" style="strokeWidth=2;html=1;shape=mxgraph.flowchart.decision;whiteSpace=wrap;" parent="1" vertex="1">
          <mxGeometry x="307" y="1247" width="140" height="60" as="geometry" />
        </mxCell>
        <mxCell id="kBIa_GiGaw9N0HxE61ZL-40" style="edgeStyle=orthogonalEdgeStyle;rounded=0;orthogonalLoop=1;jettySize=auto;html=1;exitX=0.5;exitY=1;exitDx=0;exitDy=0;entryX=0.5;entryY=0;entryDx=0;entryDy=0;entryPerimeter=0;" parent="1" source="kBIa_GiGaw9N0HxE61ZL-33" target="kBIa_GiGaw9N0HxE61ZL-38" edge="1">
          <mxGeometry relative="1" as="geometry" />
        </mxCell>
        <mxCell id="kBIa_GiGaw9N0HxE61ZL-41" style="edgeStyle=orthogonalEdgeStyle;rounded=0;orthogonalLoop=1;jettySize=auto;html=1;exitX=0.5;exitY=1;exitDx=0;exitDy=0;exitPerimeter=0;entryX=0.5;entryY=0;entryDx=0;entryDy=0;entryPerimeter=0;" parent="1" source="kBIa_GiGaw9N0HxE61ZL-38" target="kBIa_GiGaw9N0HxE61ZL-39" edge="1">
          <mxGeometry relative="1" as="geometry" />
        </mxCell>
        <mxCell id="kBIa_GiGaw9N0HxE61ZL-49" value="Yes" style="edgeLabel;html=1;align=center;verticalAlign=middle;resizable=0;points=[];" parent="kBIa_GiGaw9N0HxE61ZL-41" vertex="1" connectable="0">
          <mxGeometry x="-0.2121" y="7" relative="1" as="geometry">
            <mxPoint x="3" as="offset" />
          </mxGeometry>
        </mxCell>
        <mxCell id="kBIa_GiGaw9N0HxE61ZL-48" style="edgeStyle=orthogonalEdgeStyle;rounded=0;orthogonalLoop=1;jettySize=auto;html=1;exitX=0.5;exitY=1;exitDx=0;exitDy=0;entryX=0.5;entryY=0;entryDx=0;entryDy=0;" parent="1" source="kBIa_GiGaw9N0HxE61ZL-44" target="kBIa_GiGaw9N0HxE61ZL-47" edge="1">
          <mxGeometry relative="1" as="geometry" />
        </mxCell>
        <mxCell id="kBIa_GiGaw9N0HxE61ZL-44" value="command(2) = rx_byte" style="shape=parallelogram;html=1;strokeWidth=2;perimeter=parallelogramPerimeter;whiteSpace=wrap;rounded=1;arcSize=12;size=0.23;" parent="1" vertex="1">
          <mxGeometry x="286" y="1350" width="183" height="60" as="geometry" />
        </mxCell>
        <mxCell id="kBIa_GiGaw9N0HxE61ZL-47" value="lenght" style="rounded=1;whiteSpace=wrap;html=1;absoluteArcSize=1;arcSize=14;strokeWidth=2;" parent="1" vertex="1">
          <mxGeometry x="329" y="1450" width="97" height="50" as="geometry" />
        </mxCell>
        <mxCell id="kBIa_GiGaw9N0HxE61ZL-56" style="edgeStyle=orthogonalEdgeStyle;rounded=0;orthogonalLoop=1;jettySize=auto;html=1;exitX=0;exitY=0.5;exitDx=0;exitDy=0;exitPerimeter=0;entryX=0;entryY=0.25;entryDx=0;entryDy=0;" parent="1" source="kBIa_GiGaw9N0HxE61ZL-52" target="kBIa_GiGaw9N0HxE61ZL-47" edge="1">
          <mxGeometry relative="1" as="geometry" />
        </mxCell>
        <mxCell id="kBIa_GiGaw9N0HxE61ZL-57" value="No" style="edgeLabel;html=1;align=center;verticalAlign=middle;resizable=0;points=[];" parent="kBIa_GiGaw9N0HxE61ZL-56" vertex="1" connectable="0">
          <mxGeometry x="-0.4056" y="5" relative="1" as="geometry">
            <mxPoint x="-6" y="-14" as="offset" />
          </mxGeometry>
        </mxCell>
        <mxCell id="kBIa_GiGaw9N0HxE61ZL-60" style="edgeStyle=orthogonalEdgeStyle;rounded=0;orthogonalLoop=1;jettySize=auto;html=1;exitX=0.5;exitY=1;exitDx=0;exitDy=0;exitPerimeter=0;" parent="1" source="kBIa_GiGaw9N0HxE61ZL-52" target="kBIa_GiGaw9N0HxE61ZL-58" edge="1">
          <mxGeometry relative="1" as="geometry" />
        </mxCell>
        <mxCell id="kBIa_GiGaw9N0HxE61ZL-61" value="Yes" style="edgeLabel;html=1;align=center;verticalAlign=middle;resizable=0;points=[];" parent="kBIa_GiGaw9N0HxE61ZL-60" vertex="1" connectable="0">
          <mxGeometry x="-0.2727" y="5" relative="1" as="geometry">
            <mxPoint x="5" y="1" as="offset" />
          </mxGeometry>
        </mxCell>
        <mxCell id="kBIa_GiGaw9N0HxE61ZL-52" value="rx_dv = &#39;1&#39; ?" style="strokeWidth=2;html=1;shape=mxgraph.flowchart.decision;whiteSpace=wrap;" parent="1" vertex="1">
          <mxGeometry x="307" y="1532" width="140" height="60" as="geometry" />
        </mxCell>
        <mxCell id="kBIa_GiGaw9N0HxE61ZL-55" style="edgeStyle=orthogonalEdgeStyle;rounded=0;orthogonalLoop=1;jettySize=auto;html=1;exitX=0.5;exitY=1;exitDx=0;exitDy=0;entryX=0.5;entryY=0;entryDx=0;entryDy=0;entryPerimeter=0;" parent="1" source="kBIa_GiGaw9N0HxE61ZL-47" target="kBIa_GiGaw9N0HxE61ZL-52" edge="1">
          <mxGeometry relative="1" as="geometry" />
        </mxCell>
        <mxCell id="kBIa_GiGaw9N0HxE61ZL-63" style="edgeStyle=orthogonalEdgeStyle;rounded=0;orthogonalLoop=1;jettySize=auto;html=1;exitX=0.5;exitY=1;exitDx=0;exitDy=0;entryX=0.5;entryY=0;entryDx=0;entryDy=0;" parent="1" source="kBIa_GiGaw9N0HxE61ZL-58" target="kBIa_GiGaw9N0HxE61ZL-62" edge="1">
          <mxGeometry relative="1" as="geometry" />
        </mxCell>
        <mxCell id="kBIa_GiGaw9N0HxE61ZL-58" value="long = rx_byte&lt;div&gt;command(3) = rx_byte&lt;/div&gt;&lt;div&gt;index = 4&lt;/div&gt;" style="shape=parallelogram;html=1;strokeWidth=2;perimeter=parallelogramPerimeter;whiteSpace=wrap;rounded=1;arcSize=12;size=0.23;" parent="1" vertex="1">
          <mxGeometry x="280" y="1630" width="195" height="60" as="geometry" />
        </mxCell>
        <mxCell id="cB-RGDlfjtwhCVav2hi1-2" style="edgeStyle=orthogonalEdgeStyle;rounded=0;orthogonalLoop=1;jettySize=auto;html=1;exitX=0.5;exitY=1;exitDx=0;exitDy=0;" edge="1" parent="1" source="kBIa_GiGaw9N0HxE61ZL-62" target="cB-RGDlfjtwhCVav2hi1-1">
          <mxGeometry relative="1" as="geometry" />
        </mxCell>
        <mxCell id="kBIa_GiGaw9N0HxE61ZL-62" value="parameters" style="rounded=1;whiteSpace=wrap;html=1;absoluteArcSize=1;arcSize=14;strokeWidth=2;" parent="1" vertex="1">
          <mxGeometry x="329" y="1731" width="97" height="50" as="geometry" />
        </mxCell>
        <mxCell id="cB-RGDlfjtwhCVav2hi1-1" value="rx_dv = &#39;1&#39; ?" style="strokeWidth=2;html=1;shape=mxgraph.flowchart.decision;whiteSpace=wrap;" vertex="1" parent="1">
          <mxGeometry x="308" y="1812" width="140" height="60" as="geometry" />
        </mxCell>
        <mxCell id="cB-RGDlfjtwhCVav2hi1-12" style="edgeStyle=orthogonalEdgeStyle;rounded=0;orthogonalLoop=1;jettySize=auto;html=1;exitX=0;exitY=0.5;exitDx=0;exitDy=0;entryX=0;entryY=0.25;entryDx=0;entryDy=0;" edge="1" parent="1" source="cB-RGDlfjtwhCVav2hi1-5" target="kBIa_GiGaw9N0HxE61ZL-62">
          <mxGeometry relative="1" as="geometry" />
        </mxCell>
        <mxCell id="cB-RGDlfjtwhCVav2hi1-5" value="long = long -1&lt;div&gt;command(index) = rx_byte&lt;/div&gt;&lt;div&gt;index = index + 1&lt;/div&gt;" style="shape=parallelogram;html=1;strokeWidth=2;perimeter=parallelogramPerimeter;whiteSpace=wrap;rounded=1;arcSize=12;size=0.23;" vertex="1" parent="1">
          <mxGeometry x="142" y="1935" width="232" height="60" as="geometry" />
        </mxCell>
        <mxCell id="cB-RGDlfjtwhCVav2hi1-7" style="edgeStyle=orthogonalEdgeStyle;rounded=0;orthogonalLoop=1;jettySize=auto;html=1;exitX=0.5;exitY=1;exitDx=0;exitDy=0;exitPerimeter=0;entryX=0.532;entryY=0.004;entryDx=0;entryDy=0;entryPerimeter=0;" edge="1" parent="1" source="cB-RGDlfjtwhCVav2hi1-1" target="cB-RGDlfjtwhCVav2hi1-5">
          <mxGeometry relative="1" as="geometry" />
        </mxCell>
        <mxCell id="cB-RGDlfjtwhCVav2hi1-8" value="Yes" style="edgeLabel;html=1;align=center;verticalAlign=middle;resizable=0;points=[];" vertex="1" connectable="0" parent="cB-RGDlfjtwhCVav2hi1-7">
          <mxGeometry x="-0.2687" y="1" relative="1" as="geometry">
            <mxPoint x="-35" y="-14" as="offset" />
          </mxGeometry>
        </mxCell>
        <mxCell id="cB-RGDlfjtwhCVav2hi1-14" style="edgeStyle=orthogonalEdgeStyle;rounded=0;orthogonalLoop=1;jettySize=auto;html=1;exitX=0.5;exitY=1;exitDx=0;exitDy=0;exitPerimeter=0;entryX=1;entryY=0.5;entryDx=0;entryDy=0;" edge="1" parent="1" source="cB-RGDlfjtwhCVav2hi1-9" target="cB-RGDlfjtwhCVav2hi1-13">
          <mxGeometry relative="1" as="geometry" />
        </mxCell>
        <mxCell id="cB-RGDlfjtwhCVav2hi1-15" value="Yes" style="edgeLabel;html=1;align=center;verticalAlign=middle;resizable=0;points=[];" vertex="1" connectable="0" parent="cB-RGDlfjtwhCVav2hi1-14">
          <mxGeometry x="0.2987" relative="1" as="geometry">
            <mxPoint x="19" y="-42" as="offset" />
          </mxGeometry>
        </mxCell>
        <mxCell id="cB-RGDlfjtwhCVav2hi1-9" value="long = 0 ?" style="strokeWidth=2;html=1;shape=mxgraph.flowchart.decision;whiteSpace=wrap;" vertex="1" parent="1">
          <mxGeometry x="431" y="1936" width="140" height="60" as="geometry" />
        </mxCell>
        <mxCell id="cB-RGDlfjtwhCVav2hi1-10" style="edgeStyle=orthogonalEdgeStyle;rounded=0;orthogonalLoop=1;jettySize=auto;html=1;exitX=0.5;exitY=1;exitDx=0;exitDy=0;exitPerimeter=0;entryX=0.5;entryY=0;entryDx=0;entryDy=0;entryPerimeter=0;" edge="1" parent="1" source="cB-RGDlfjtwhCVav2hi1-1" target="cB-RGDlfjtwhCVav2hi1-9">
          <mxGeometry relative="1" as="geometry" />
        </mxCell>
        <mxCell id="cB-RGDlfjtwhCVav2hi1-11" value="No" style="edgeLabel;html=1;align=center;verticalAlign=middle;resizable=0;points=[];" vertex="1" connectable="0" parent="cB-RGDlfjtwhCVav2hi1-10">
          <mxGeometry x="0.2941" y="-1" relative="1" as="geometry">
            <mxPoint x="10" y="-18" as="offset" />
          </mxGeometry>
        </mxCell>
        <mxCell id="cB-RGDlfjtwhCVav2hi1-13" value="check" style="rounded=1;whiteSpace=wrap;html=1;absoluteArcSize=1;arcSize=14;strokeWidth=2;" vertex="1" parent="1">
          <mxGeometry x="328" y="2064" width="112" height="50" as="geometry" />
        </mxCell>
        <mxCell id="cB-RGDlfjtwhCVav2hi1-17" style="edgeStyle=orthogonalEdgeStyle;rounded=0;orthogonalLoop=1;jettySize=auto;html=1;exitX=0;exitY=0.75;exitDx=0;exitDy=0;entryX=0;entryY=0.5;entryDx=0;entryDy=0;" edge="1" parent="1" source="cB-RGDlfjtwhCVav2hi1-16" target="R3QwsEBxaPi7MsHxChWB-3">
          <mxGeometry relative="1" as="geometry">
            <Array as="points">
              <mxPoint x="100" y="2157" />
              <mxPoint x="100" y="205" />
            </Array>
          </mxGeometry>
        </mxCell>
        <mxCell id="cB-RGDlfjtwhCVav2hi1-16" value="read_full = 1&lt;div&gt;lenght = index -1&lt;/div&gt;&lt;div&gt;out_command = command&lt;/div&gt;" style="shape=parallelogram;html=1;strokeWidth=2;perimeter=parallelogramPerimeter;whiteSpace=wrap;rounded=1;arcSize=12;size=0.23;" vertex="1" parent="1">
          <mxGeometry x="251" y="2114" width="232" height="60" as="geometry" />
        </mxCell>
      </root>
    </mxGraphModel>
  </diagram>
</mxfile>
